<svg width="300" height="239" viewBox="0 0 300 239" fill="none" xmlns="http://www.w3.org/2000/svg">
<g clip-path="url(#clip0_110_434)">
<path d="M181.069 0V38.3712H219.441L181.069 0Z" fill="#0000FF"/>
<path d="M110.103 60.273L81.4756 31.6455V137.964H187.794L159.167 109.336H110.103V60.273Z" fill="#FFCF5C"/>
<path d="M110.103 3.104V60.3591L159.166 109.423H216.421L110.103 3.104Z" fill="#4135F3"/>
<path d="M110.103 109.336H159.166L110.103 60.2729V109.336Z" fill="#0C0579"/>
</g>
<path d="M97.2529 154.239V160.281H105.366V164.113H97.2529V170.501H106.402V174.437H92.4194V150.303H106.402V154.239H97.2529ZM109.552 164.804C109.552 162.87 109.932 161.156 110.691 159.66C111.474 158.163 112.521 157.013 113.833 156.207C115.168 155.401 116.653 154.999 118.287 154.999C119.714 154.999 120.957 155.286 122.016 155.862C123.097 156.437 123.961 157.162 124.605 158.037V155.309H129.473V174.437H124.605V171.64C123.984 172.538 123.12 173.286 122.016 173.884C120.934 174.46 119.679 174.747 118.252 174.747C116.641 174.747 115.168 174.333 113.833 173.504C112.521 172.676 111.474 171.513 110.691 170.017C109.932 168.498 109.552 166.76 109.552 164.804ZM124.605 164.873C124.605 163.699 124.375 162.698 123.914 161.869C123.454 161.018 122.833 160.373 122.05 159.936C121.268 159.475 120.427 159.245 119.53 159.245C118.632 159.245 117.803 159.464 117.044 159.901C116.284 160.339 115.663 160.983 115.18 161.835C114.719 162.663 114.489 163.653 114.489 164.804C114.489 165.955 114.719 166.968 115.18 167.842C115.663 168.694 116.284 169.35 117.044 169.81C117.826 170.27 118.655 170.501 119.53 170.501C120.427 170.501 121.268 170.282 122.05 169.845C122.833 169.384 123.454 168.74 123.914 167.911C124.375 167.06 124.605 166.047 124.605 164.873ZM138.613 170.466H147.141V174.437H133.124V170.535L141.479 159.28H133.158V155.309H147.037V159.211L138.613 170.466ZM155.303 170.466H163.831V174.437H149.813V170.535L158.168 159.28H149.848V155.309H163.727V159.211L155.303 170.466ZM185.872 155.309L174.029 183.482H168.885L173.028 173.953L165.363 155.309H170.784L175.721 168.671L180.727 155.309H185.872ZM108.819 192.338V196.239H102.397V216.437H97.5637V196.239H91.1419V192.338H108.819ZM117.179 200.279C117.801 199.266 118.606 198.472 119.596 197.896C120.609 197.321 121.76 197.033 123.049 197.033V202.108H121.771C120.252 202.108 119.101 202.465 118.319 203.179C117.559 203.892 117.179 205.135 117.179 206.907V216.437H112.346V197.309H117.179V200.279ZM125.061 206.804C125.061 204.87 125.441 203.156 126.201 201.66C126.983 200.163 128.031 199.013 129.343 198.207C130.678 197.401 132.162 196.999 133.796 196.999C135.223 196.999 136.466 197.286 137.525 197.862C138.607 198.437 139.47 199.162 140.114 200.037V197.309H144.983V216.437H140.114V213.64C139.493 214.538 138.63 215.286 137.525 215.884C136.443 216.46 135.189 216.747 133.762 216.747C132.151 216.747 130.678 216.333 129.343 215.504C128.031 214.676 126.983 213.513 126.201 212.017C125.441 210.498 125.061 208.76 125.061 206.804ZM140.114 206.873C140.114 205.699 139.884 204.698 139.424 203.869C138.964 203.018 138.342 202.373 137.56 201.936C136.777 201.475 135.937 201.245 135.039 201.245C134.142 201.245 133.313 201.464 132.553 201.901C131.794 202.339 131.172 202.983 130.689 203.835C130.229 204.663 129.999 205.653 129.999 206.804C129.999 207.955 130.229 208.968 130.689 209.842C131.172 210.694 131.794 211.35 132.553 211.81C133.336 212.27 134.165 212.501 135.039 212.501C135.937 212.501 136.777 212.282 137.56 211.845C138.342 211.384 138.964 210.74 139.424 209.911C139.884 209.06 140.114 208.047 140.114 206.873ZM148.46 206.873C148.46 204.893 148.863 203.167 149.669 201.694C150.474 200.198 151.591 199.047 153.018 198.242C154.445 197.413 156.079 196.999 157.92 196.999C160.291 196.999 162.248 197.597 163.79 198.794C165.355 199.968 166.402 201.625 166.932 203.766H161.718C161.442 202.937 160.97 202.293 160.303 201.832C159.658 201.349 158.853 201.107 157.886 201.107C156.505 201.107 155.412 201.614 154.606 202.626C153.8 203.616 153.398 205.032 153.398 206.873C153.398 208.691 153.8 210.107 154.606 211.12C155.412 212.109 156.505 212.604 157.886 212.604C159.842 212.604 161.12 211.73 161.718 209.98H166.932C166.402 212.052 165.355 213.697 163.79 214.917C162.225 216.137 160.268 216.747 157.92 216.747C156.079 216.747 154.445 216.344 153.018 215.539C151.591 214.71 150.474 213.559 149.669 212.086C148.863 210.59 148.46 208.852 148.46 206.873ZM181.797 216.437L175.306 208.288V216.437H170.473V190.888H175.306V205.423L181.728 197.309H188.012L179.587 206.907L188.081 216.437H181.797ZM208.416 206.459C208.416 207.149 208.37 207.771 208.278 208.323H194.295C194.41 209.704 194.893 210.786 195.745 211.568C196.596 212.351 197.644 212.742 198.887 212.742C200.682 212.742 201.959 211.971 202.719 210.429H207.932C207.38 212.27 206.321 213.79 204.756 214.986C203.191 216.16 201.269 216.747 198.99 216.747C197.149 216.747 195.492 216.344 194.019 215.539C192.568 214.71 191.429 213.548 190.601 212.052C189.795 210.556 189.392 208.829 189.392 206.873C189.392 204.893 189.795 203.156 190.601 201.66C191.406 200.163 192.534 199.013 193.984 198.207C195.434 197.401 197.103 196.999 198.99 196.999C200.809 196.999 202.431 197.39 203.858 198.173C205.308 198.955 206.425 200.071 207.207 201.521C208.013 202.949 208.416 204.594 208.416 206.459ZM203.409 205.078C203.386 203.835 202.938 202.845 202.063 202.108C201.188 201.349 200.118 200.969 198.852 200.969C197.655 200.969 196.642 201.337 195.814 202.074C195.008 202.787 194.513 203.789 194.329 205.078H203.409ZM216.777 200.279C217.399 199.266 218.204 198.472 219.194 197.896C220.207 197.321 221.358 197.033 222.647 197.033V202.108H221.369C219.85 202.108 218.699 202.465 217.917 203.179C217.157 203.892 216.777 205.135 216.777 206.907V216.437H211.944V197.309H216.777V200.279Z" fill="#0C0579"/>
<defs>
<clipPath id="clip0_110_434">
<rect width="137.964" height="137.964" fill="white" transform="translate(81.4746)"/>
</clipPath>
</defs>
</svg>
